<svg xmlns="http://www.w3.org/2000/svg" viewBox="0 0 660.09 714.87"><defs><style>.cls-1{isolation:isolate;}.cls-2,.cls-3{fill:#fff;}.cls-3{mix-blend-mode:multiply;}</style></defs><g class="cls-1"><g id="Layer_1" data-name="Layer 1"><path class="cls-2" d="M315.84,310.2Z" transform="translate(-8.96 -2.56)"/><path class="cls-2" d="M316.23,309.62c-.22.33-.33.55-.55.89l-.11.11a.61.61,0,0,1,.22-.45A1.93,1.93,0,0,0,316.23,309.62Z" transform="translate(-8.96 -2.56)"/><path class="cls-2" d="M350.31,331.78l-.51.8C350,332.32,350.14,332.05,350.31,331.78Z" transform="translate(-8.96 -2.56)"/><path class="cls-2" d="M316.24,309.6l.06-.09Z" transform="translate(-8.96 -2.56)"/><path class="cls-2" d="M432.32,71a1.9,1.9,0,0,1-.11.78A44.31,44.31,0,0,1,431,77.9c-.12.44-.23.77-.34,1.22,0,.11-.11.22-.11.33A20.8,20.8,0,0,1,416,91a16.16,16.16,0,0,1-4.1.45A20.35,20.35,0,0,1,391.59,71a21.9,21.9,0,0,1,.22-2.77c0-.33.11-.55.11-.89a15.37,15.37,0,0,0-.67-5.32c-1.11-2.45-2.66-4.67-6.21-7.55a67.69,67.69,0,0,0-19-7.33c-25.86-6.88-61.59-5.32-95.22,5.33a139.64,139.64,0,0,0-15,5.22c-1.66.66-3.44,1.33-5.11,2-3.21,1.45-6.76,3.11-10.65,5.22a273.78,273.78,0,0,0-40.73,26.3c-.89.67-1.55,1.33-2.33,1.89a423.38,423.38,0,0,0-87.78,88.56c-33.85,46-58.16,99.55-60,154.93-.67,31.85,11,57.93,30.07,76a98.82,98.82,0,0,0,51.16,24.3c20.53,3.89,42.73,1.78,65.37-6.32,32.41-12,66-37.4,94.55-79.8,5.22-7.21,21.31-34.73,25.2-40.17l.11-.11c.22-.34.33-.56.55-.89a.11.11,0,0,1,.11-.11,20.14,20.14,0,0,1,16.76-9,20.32,20.32,0,0,1,17.2,31.3c-.11.22-.33.44-.55.77-5.11,8.1-11,17.54-14.43,22.75-36.07,60.71-80.9,96.78-125.41,113-29.63,11-59.37,13.87-86.12,8.55A143.87,143.87,0,0,1,52,442.24C24.58,416.49,7.6,379.32,9,336c1.67-65.47,29.63-126.85,67.81-178a459.88,459.88,0,0,1,85-88.56c1.22-1,2.44-2,3.66-2.88a346.28,346.28,0,0,1,50.61-34.3c7.66-4.21,24.19-12,24.19-12,45.5-18.76,98.55-22,135.62-12.77C387.81,11.09,398.47,15.3,407,21.3a23.48,23.48,0,0,1,2.22,1.55c.11-.11.11-.11.23.11a38.35,38.35,0,0,1,5.43,4.11c.11,0,.11,0,.11.11a52.25,52.25,0,0,1,14.21,19.64A46,46,0,0,1,432.32,71Z" transform="translate(-8.96 -2.56)"/><path class="cls-3" d="M333.15,300.57a20.34,20.34,0,0,0-16.85,8.94l-.06.09a20.34,20.34,0,0,0,33.56,23l.51-.8a20.15,20.15,0,0,0,3.19-10.85A20.36,20.36,0,0,0,333.15,300.57Z" transform="translate(-8.96 -2.56)"/><path class="cls-2" d="M653.55,267.81c-27.3-49.06-82.35-73.81-140.28-76.58-3.88-.67-25.08-.33-31.41.33a162.81,162.81,0,0,0-43.06,9.88c-42.87,15.47-87.71,52-122.5,108.07a20.33,20.33,0,0,1,34,22.27l1.6-2.49a117.18,117.18,0,0,1,6.32-10.21c28.74-42.4,62.15-67.81,94.67-79.8a134.72,134.72,0,0,1,21.86-6,77.16,77.16,0,0,1,9.21-1.44c4.66-.33,9.21-.78,13.76-.78a75.07,75.07,0,0,1,10.21.45c46.28,1.33,89.79,19,110.2,56,25.09,44.84,6.11,84.79-30.29,109.54-16.58,10.94-26.49,17.79-53.05,21.58l-1.92.25c-8.63,1.15-18.91,2-31.71,2.58h-1.11a20.84,20.84,0,0,0-20.86,20.87v.33A20.87,20.87,0,0,0,488.85,460a20.35,20.35,0,0,0,5,2.33.4.4,0,0,1,.33.11,3,3,0,0,1,1,.23,3.31,3.31,0,0,0,1.11.22c12.76,2.3,58.37-5.77,58.37-5.77,2.82-1,4.22-1,6.33-1.78A151.87,151.87,0,0,0,621,424C665.87,385.78,685,324.29,653.55,267.81Z" transform="translate(-8.96 -2.56)"/><path class="cls-3" d="M584.3,494.2a135.52,135.52,0,0,0-26.53-33.51c-.87-1-29.22-23.21-45.26-34.64-.06-.05-.17-.09-.23-.13a20.67,20.67,0,0,0-12.6-4.33,20.91,20.91,0,0,0-5,.68c-.22.06-.42.12-.61.19A20.76,20.76,0,0,0,496.5,463c15.78,4.36,29.91,14.52,40.08,28.77a92.14,92.14,0,0,1,17.64,42c5.66,30.74-2.44,66-31.41,95.33-56.15,57.6-178.23,68.59-230.17,4.66-47.39-58.7-7.1-146.15,62.82-158.92a72.92,72.92,0,0,1,10.32-1.44,82.08,82.08,0,0,1,15.87,0,79.66,79.66,0,0,1,20.09,4.88,58.08,58.08,0,0,1,17.64,11c1,1.11,2.11,2.22,3.22,3.66s2,2.78,3.11,4.22a38.07,38.07,0,0,1,4.55,8.43,45.45,45.45,0,0,1,1.88,8.1v.23c.11.33.11.66.23,1a20.53,20.53,0,0,0,40.5-4.44v-.23c0-.55-.11-1.22-.11-1.77v-.33a41.33,41.33,0,0,0-.89-4.11,64.16,64.16,0,0,0-2.44-8.32A45.66,45.66,0,0,0,465.22,485c-1.45-3.11-2.78-5.66-4.22-8.43a80.81,80.81,0,0,0-6.22-8.88,69,69,0,0,0-6.43-6.33,15.86,15.86,0,0,0-4.22-3.88,36,36,0,0,0-2.89-2.44c11.88-19.31,53.94-82.13,69.25-106.54a20.45,20.45,0,0,0,5.31-18.65,20.93,20.93,0,0,0-39.71-3.66l-70.8,110.43h-1.45a151.69,151.69,0,0,0-43.39-1.67h-.78a52,52,0,0,0-8.1,1.33C247.7,452.81,192.65,574.66,261.24,659.12c67.36,82.9,217.74,73,290.54-1.89C599.39,608.62,613.93,547.14,584.3,494.2Z" transform="translate(-8.96 -2.56)"/></g></g></svg>